<svg id="Calque_1" data-name="Calque 1" xmlns="http://www.w3.org/2000/svg" viewBox="0 0 1080 1080"><defs><style>.cls-1{fill:#f2e9e9;}.cls-2{fill:#f99404;}</style></defs><g id="logo-crokli-light-orange"><path class="cls-1" d="M270.87,856.05c-17.59,0-57.69,155-51.5,167.31S364.78,1131,831.69,1043.25c5.55-1,10.13-4.25,12.2-8.55,23.05-47.79-16.57-181.6-32-209.22a11.2,11.2,0,0,0-9.68-5.29C762.28,819.6,579.6,855.53,270.87,856.05Z"/><path class="cls-1" d="M902.31,340.5c-25.3,131.41-58.41,278.37-77.5,359-369.42,54.54-580,47.89-580,47.89-5.58-24.85-11.92-54.56-18.25-85.26A2340.49,2340.49,0,0,1,177.8,210.84c-.65-68.82,1.43-129,9.64-145.56C199.51,41.1,394.5,29.83,584.2,35.75c-13.4,65.7,5,139.27,65.63,143.4a10.23,10.23,0,0,1,9.24,12.13c-10.62,57.91,124.5,132.32,185.66,79.6a10.32,10.32,0,0,1,17.14,6.36C866.62,313.42,882,332.43,902.31,340.5Z"/><path class="cls-2" d="M733.83,712.12q97.77-213.6,85.11-427.22c-18.9,5.82-40.69,4.88-62-.62q5.35,219.38-62.86,432.88-31.33,3.84-60.66,7.06,42.77-241.65,35.85-496.09c-8.36-12.15-12.41-24.85-10.21-36.85a10.23,10.23,0,0,0-9.24-12.13c-18.7-1.27-33.37-9.14-44.33-21.34Q613,453,587.68,729q-49.87,5-92.94,8.35Q473.35,437.2,481.47,114c.33-14.51-10.56-24.94-24.38-22.21-3.18.61-6.35,1.27-9.53,2-13.82,3-25.79,17.74-26.61,31.72q-17.64,317.77,29.74,615.13-36,2.43-66.06,3.85-96-280.76-64.49-571.66c1.32-12.64-8.67-17.23-22.59-9.22q-4.8,2.73-9.59,5.55c-13.91,8.33-26.89,24.89-28.67,36Q217.15,475.5,352,745.88c-70.17,2.66-107.17,1.49-107.17,1.49,6.49,28.65,12,50.81,15.54,60.57a11.46,11.46,0,0,0,7.51,7.08c68,20,475.34-22.47,535.2-50.34a14.89,14.89,0,0,0,8.13-9.77c2.44-9.11,7.23-28.58,13.6-55.44Q777.55,706.45,733.83,712.12Z"/><path class="cls-1" d="M708,30.16c8.5,28.53,7.78,76-10.35,81.55-1.54.47-3.16.91-4.87,1.34-9.27-10.91-26.94-25.12-39.6-34.72C678.76,27.08,699.56,1.84,708,30.16Z"/><path class="cls-2" d="M692.76,113.05c-18.46,4.62-45.82,6.29-57.22-2.13-12.45-9.16,9.28-15.8,16.88-31.12.26-.51.49-1,.74-1.47C665.82,87.93,683.49,102.14,692.76,113.05Z"/><path class="cls-1" d="M803.53,0a18,18,0,0,0-18.12,12.45c-4.89,15.58-10.44,41.88,4.3,50.35,21.4,12.29,71.36-17.38,59.46-37C839.45,9.71,823.37,1,803.53,0Z"/><path class="cls-1" d="M818,236.53c16.62,3.82,31.35-.09,39.83-19,21.92-48.94,26.76-103.75.83-126.27-19.08-16.54-53.5-.86-80.82,22.88C783.25,144.42,796.23,205,818,236.53Z"/><path class="cls-2" d="M742.44,188.57c18.18,16.35,49.2,41.91,75.56,48-21.77-31.57-34.75-92.11-40.16-122.41C748.29,139.75,727,174.75,742.44,188.57Z"/></g></svg>